<svg width="1024" height="1024" viewBox="0 0 1024 1024" xmlns="http://www.w3.org/2000/svg">
  <defs>
    <linearGradient id="bg" x1="0" y1="0" x2="1" y2="1">
      <stop offset="0" stop-color="#2563eb" />
      <stop offset="1" stop-color="#38bdf8" />
    </linearGradient>
    <filter id="shadow" x="-20%" y="-20%" width="140%" height="140%">
      <feDropShadow dx="0" dy="14" stdDeviation="18" flood-color="#0b1120" flood-opacity="0.28" />
    </filter>
  </defs>
  <rect x="0" y="0" width="1024" height="1024" rx="224" fill="url(#bg)" />
  <g filter="url(#shadow)" transform="translate(148,176) scale(28)" fill="#ffffff">
    <path d="M16.5 6v11.5c0 2.21-1.79 4-4 4s-4-1.79-4-4V5c0-1.38 1.12-2.5 2.5-2.5S13.5 3.62 13.5 5v10.5c0 .55-.45 1-1 1s-1-.45-1-1V6H10v9.5c0 1.38 1.12 2.5 2.5 2.5s2.5-1.12 2.5-2.5V5c0-2.21-1.79-4-4-4S7.5 2.79 7.5 5v12.5c0 3.04 2.46 5.5 5.5 5.5s5.5-2.46 5.5-5.5V6h-1.5z" />
  </g>
</svg>
